<svg aria-hidden="true" style="position: absolute; width: 0; height: 0; overflow: hidden;" version="1.1" xmlns="http://www.w3.org/2000/svg" xmlns:xlink="http://www.w3.org/1999/xlink">
    <defs>
        <symbol id="icon-facebook" viewBox="0 0 32 32">
            <path fill="#fea5bb" style="fill: var(--color1, #fea5bb)" d="M16 32c8.837 0 16-7.163 16-16s-7.163-16-16-16c-8.837 0-16 7.163-16 16s7.163 16 16 16z"></path>
            <path fill="#fff" style="fill: var(--color2, #fff)" d="M20.446 15.982h-2.61v9.619h-3.955v-9.619h-1.881v-3.38h1.881v-2.187c0-1.564 0.739-4.014 3.99-4.014l2.929 0.012v3.281h-2.125c-0.349 0-0.839 0.175-0.839 0.921v1.989h2.955l-0.346 3.377z"></path>
        </symbol>
        <symbol id="icon-github" viewBox="0 0 32 32">
            <path fill="#fea5bb" style="fill: var(--color1, #fea5bb)" d="M32 16c0 8.837-7.163 16-16 16s-16-7.163-16-16c0-8.837 7.163-16 16-16s16 7.163 16 16z"></path>
            <path fill="#fff" style="fill: var(--color2, #fff)" d="M16 6.588c-5.169 0-9.412 4.242-9.412 9.412 0 4.411 3.095 8.419 7.206 9.412v-3.114c-0.407 0.089-0.782 0.092-1.197-0.030-0.556-0.164-1.008-0.535-1.344-1.1-0.214-0.361-0.593-0.752-0.988-0.723l-0.097-1.099c0.855-0.073 1.595 0.521 2.034 1.259 0.195 0.328 0.419 0.52 0.708 0.605 0.278 0.082 0.578 0.043 0.926-0.080 0.088-0.698 0.407-0.959 0.648-1.326v-0.001c-2.451-0.366-3.428-1.666-3.816-2.693-0.514-1.363-0.238-3.066 0.671-4.142 0.018-0.021 0.050-0.076 0.037-0.114-0.417-1.258 0.091-2.299 0.11-2.41 0.481 0.142 0.559-0.143 2.089 0.786l0.264 0.159c0.111 0.066 0.076 0.028 0.186 0.020 0.639-0.173 1.312-0.269 1.975-0.278 0.668 0.009 1.337 0.104 2.002 0.285l0.086 0.009c-0.007-0.001 0.023-0.005 0.075-0.036 1.911-1.157 1.842-0.779 2.355-0.946 0.019 0.111 0.519 1.169 0.107 2.411-0.056 0.171 1.657 1.739 0.708 4.256-0.388 1.027-1.365 2.328-3.816 2.693v0.001c0.314 0.479 0.692 0.734 0.69 1.722v3.887c4.111-0.993 7.206-5 7.206-9.412 0-5.169-4.242-9.412-9.412-9.412v0z"></path>
        </symbol>
        <symbol id="icon-icon1" viewBox="0 0 21 32">
            <path d="M0 0h21.12v32h-21.12v-32z"></path>
        </symbol>
        <symbol id="    " viewBox="0 0 32 32">
            <path d="M0 0h32v32h-32v-32z"></path>
        </symbol>
        <symbol id="icon-icon3" viewBox="0 0 28 32">
            <path d="M0 0h28.16v32h-28.16v-32z"></path>
        </symbol>
        <symbol id="icon-telegram" viewBox="0 0 32 32">
            <path fill="#fea5bb" style="fill: var(--color1, #fea5bb)" d="M32 16c0 8.837-7.163 16-16 16s-16-7.163-16-16c0-8.837 7.163-16 16-16s16 7.163 16 16z"></path>
            <path fill="#fff" style="fill: var(--color2, #fff)" d="M12.867 18.375l-0.318 4.169c0.454 0 0.651-0.182 0.887-0.401l2.13-1.9 4.415 3.017c0.81 0.421 1.38 0.199 1.599-0.695l2.898-12.672 0.001-0.001c0.257-1.117-0.433-1.554-1.222-1.28l-17.032 6.086c-1.162 0.421-1.145 1.026-0.198 1.3l4.355 1.264 10.115-5.907c0.476-0.294 0.909-0.131 0.553 0.163l-8.182 6.857z"></path>
        </symbol>
        <symbol id="icon-quotes-right" viewBox="0 0 32 32">
            <path width="54" height="40" d="M40.018 0c2.41 0 4.687.65 6.83 1.951 2.143 1.301 3.884 3.171 5.223 5.61C53.357 10 54 12.873 54 16.179s-.804 6.531-2.41 9.675c-.536 1.138-1.5 2.601-2.894 4.39-1.446 1.788-2.785 3.333-4.017 4.634L39.616 40 36 33.984a27.548 27.548 0 006.67-5.854c1.928-2.276 2.892-4.363 2.892-6.26 0-.976-.214-1.762-.642-2.358-1.875 1.355-3.965 2.033-6.268 2.033-1.66 0-3.241-.515-4.741-1.545a10.708 10.708 0 01-3.697-3.902c-.964-1.572-1.446-3.198-1.446-4.878 0-1.898.562-3.713 1.687-5.448a12.784 12.784 0 014.26-4.227C36.428.515 38.195 0 40.017 0zM11.17 0c2.41 0 4.687.65 6.83 1.951 2.143 1.301 3.884 3.17 5.223 5.61 1.286 2.439 1.929 5.312 1.929 8.618 0 2.33-.295 4.417-.884 6.26-.59 1.897-1.607 3.875-3.054 5.935-1.393 1.951-2.705 3.577-3.937 4.878-1.232 1.355-3.375 3.604-6.429 6.748l-3.616-6.016a27.551 27.551 0 006.67-5.854c1.928-2.276 2.893-4.363 2.893-6.26 0-.976-.215-1.762-.643-2.358-1.875 1.355-3.965 2.033-6.268 2.033-1.66 0-3.241-.515-4.741-1.545a10.708 10.708 0 01-3.697-3.902C.482 14.526 0 12.9 0 11.22c0-1.898.536-3.713 1.607-5.448a12.784 12.784 0 014.26-4.227C7.58.515 9.347 0 11.17 0z" fill="#E1E1E1"/>
        </symbol>
        <symbol id="icon-arrow-right2" viewBox="0 0 32 32">
            <path d="M19.414 27.414l10-10c0.781-0.781 0.781-2.047 0-2.828l-10-10c-0.781-0.781-2.047-0.781-2.828 0s-0.781 2.047 0 2.828l6.586 6.586h-19.172c-1.105 0-2 0.895-2 2s0.895 2 2 2h19.172l-6.586 6.586c-0.39 0.39-0.586 0.902-0.586 1.414s0.195 1.024 0.586 1.414c0.781 0.781 2.047 0.781 2.828 0z"></path>
        </symbol>
        <symbol id="icon-circle-right" viewBox="0 0 32 32">
            <path d="M11.086 22.086l2.829 2.829 8.914-8.914-8.914-8.914-2.828 2.828 6.086 6.086z"></path>
        </symbol>
        <symbol id="icon-quotes-right1" viewBox="0 0 32 32">
            <path fill="#E1E1E1" d="M25 20c-3.866 0-7-3.134-7-7s3.134-7 7-7 7 3.134 7 7l0.031 1c0 7.732-6.268 14-14 14v-4c2.671 0 5.182-1.040 7.071-2.929 0.364-0.364 0.695-0.75 0.995-1.157-0.357 0.056-0.724 0.086-1.097 0.086zM7 20c-3.866 0-7-3.134-7-7s3.134-7 7-7 7 3.134 7 7l0.031 1c0 7.732-6.268 14-14 14v-4c2.671 0 5.182-1.040 7.071-2.929 0.364-0.364 0.695-0.75 0.995-1.157-0.357 0.056-0.724 0.086-1.097 0.086z"></path>
        </symbol>
        <symbol id="icon-arrow-right21" viewBox="0 0 32 32">
            <path d="M19.414 27.414l10-10c0.781-0.781 0.781-2.047 0-2.828l-10-10c-0.781-0.781-2.047-0.781-2.828 0s-0.781 2.047 0 2.828l6.586 6.586h-19.172c-1.105 0-2 0.895-2 2s0.895 2 2 2h19.172l-6.586 6.586c-0.39 0.39-0.586 0.902-0.586 1.414s0.195 1.024 0.586 1.414c0.781 0.781 2.047 0.781 2.828 0z"></path>
        </symbol>
        <symbol id="icon-circle-right1" viewBox="0 0 32 32">
            <path d="M16 0c-8.837 0-16 7.163-16 16s7.163 16 16 16 16-7.163 16-16-7.163-16-16-16zM16 29c-7.18 0-13-5.82-13-13s5.82-13 13-13 13 5.82 13 13-5.82 13-13 13z"></path>
            <path d="M11.086 22.086l2.829 2.829 8.914-8.914-8.914-8.914-2.828 2.828 6.086 6.086z"></path>
        </symbol>
    </defs>
</svg>